<svg id="Layer_1" data-name="Layer 1" xmlns="http://www.w3.org/2000/svg" viewBox="0 0 5000 5000"><defs><style>.cls-1{fill:#0b143a;}.cls-2{fill:#fff;}.cls-3{fill:#e1a03b;}</style></defs><rect class="cls-1" x="-276.08" y="-276.08" width="5552.16" height="5552.16"/><path class="cls-2" d="M2547.5,4360.09c-190.07,0-403.39-14-488.47-70.75-56.37-37.58-60-76-53.07-101.7,14.49-53.85,97.35-89.59,246.61-106.49-87.87-164.38-119.71-323.46-130.31-436.07l-22.4,32.49a49.9,49.9,0,0,1-14.45,13.84c-145.07,91.19-227.83,110.16-276.57,63.41-64.54-61.87-1.71-198,41.49-273.54.56-1,1.15-1.94,1.78-2.87,1.06-1.62,108.08-162.87,202.16-339.52,173.72-326.22,140.18-396.73,135.79-403.7-5.85-9.31-31.68-6.42-39.45-5.31-306.91,43.81-429.69-101.55-462.73-152.6-32-16.66-94.59-57.06-98.49-119.33-2.78-44.52,23.54-83.56,78.23-116,119.44-70.91,187.49-160.25,194.57-169.8,124.33-195.18,288.12-266.51,403.75-292a656.53,656.53,0,0,1,145.75-14.87c-38.15-123.07-87.69-329.22-25-415.38,52.69-72.44,146.15-328,177.73-420.29a49.65,49.65,0,0,1,89.39-9.79c118.3,194.22,151.72,362.56,154.92,484.09,142.18-152.82,320.48-240.66,330.27-245.43a49.67,49.67,0,0,1,71.12,39.78c.5,5.12,12.15,127.21-11.66,275.1-32.38,201.07-115.79,353.25-241.23,440.1-244.55,169.28-228.29,314.92-228.1,316.37,4.72,27-13.43,52.25-40.44,57S2635.83,2373,2631.1,2346c-1-5.83-9.06-59.26,22.78-137.29,40-98.07,123-191.22,246.78-276.89,186.86-129.35,212.5-408.79,213.18-545.41-92.22,56.3-253.91,171.33-333.93,325.84a49.66,49.66,0,0,1-90.5-40.51c.14-.39,23-63.72,19.66-168.65-2.54-79.49-21-196.94-88.16-336.28-40.84,110.7-105.9,275.48-153.94,341.53-31.77,43.7,6.61,240.09,62.39,396.1a49.65,49.65,0,0,1-56.71,65.37c-13.1-2.6-326.27-60.38-527.45,256.88-.45.72-.93,1.43-1.41,2.11-3.23,4.56-80.72,112.6-225.46,198.55-22.46,13.33-28.34,22.49-29.61,24.95,3.29,9.44,28.1,29.76,54.28,41.37a50.09,50.09,0,0,1,24.83,24.07c3,5.82,82.3,154.82,368.73,113.85,80.06-11.44,119,21.23,137.5,50.63,31.66,50.2,52.39,157.06-132.46,504C2049,3360,1947.54,3514.18,1935.78,3532c-30.73,54.31-55.2,120.12-55.77,147.64,15.51-1.77,55.91-12.47,144-66.9l104.5-151.53a49.65,49.65,0,0,1,90.26,33.31c-.29,3-28.29,307.74,158.12,602.89a49.66,49.66,0,0,1-38.88,76.08c-86.88,5.46-176.09,21-218.25,36.72,107.77,61.78,522.41,56.35,763.13,38a47.24,47.24,0,0,1,7.8,0c6.23.39,157.67,10.42,173-100.76a49.64,49.64,0,0,1,71.77-37.43c27.06,13.62,92.46,35.09,121,14.18,22.35-16.36,28.55-66.89,17-138.63a49.66,49.66,0,0,1,1.93-23.59L3314,3846.09a49.65,49.65,0,1,1,94.21,31.4l-34.86,104.56c15.2,108.33-4.47,183.13-58.56,222.5-53.11,38.61-121.78,29.51-169.36,15.46-49.38,109.71-182.68,132.41-258.78,127.47C2848.47,4350.33,2706.08,4360.09,2547.5,4360.09Z"/><path class="cls-3" d="M1525.76,4573H447.4a69.21,69.21,0,0,1-69.22-69.22V1670.23a69.23,69.23,0,0,1,34.86-60.1l2053.46-1174a69.29,69.29,0,0,1,66.09-1.43L4609,1505.45a69.24,69.24,0,0,1-63.47,123.07L2502.56,575,516.62,1710.4V4434.53H1525.76a69.23,69.23,0,0,1,0,138.45Z"/></svg>